PathFileType	4	(X/Y/Z)	c:/Users/goper/Files/vsCode/490R/osim_files/C08/C08_Fast_05.trc
DataRate	CameraRate	NumFrames	NumMarkers	Units                	OrigDataRate	OrigDataStartFrame	OrigNumFrames
250.00	250.00	4	36	mm	250.0	1591	2121
                Frame#	Time	LPSIS			LASIS			LTH1			LTH2			LTH3			LTH4			LLFE			LMFE			LSH1			LSH2			LSH3			LSH4			LLMAL			LMMAL			LCAL			LMTP5			LTOE			LMTP1			RPSIS			RASIS			RTH1			RTH2			RTH3			RTH4			RLFE			RMFE			RSH1			RSH2			RSH3			RSH4			RLMAL			RMMAL			RCAL			RMTP1			RTOE			RMTP5		
		X1	Y1	Z1	X2	Y2	Z2	X3	Y3	Z3	X4	Y4	Z4	X5	Y5	Z5	X6	Y6	Z6	X7	Y7	Z7	X8	Y8	Z8	X9	Y9	Z9	X10	Y10	Z10	X11	Y11	Z11	X12	Y12	Z12	X13	Y13	Z13	X14	Y14	Z14	X15	Y15	Z15	X16	Y16	Z16	X17	Y17	Z17	X18	Y18	Z18	X19	Y19	Z19	X20	Y20	Z20	X21	Y21	Z21	X22	Y22	Z22	X23	Y23	Z23	X24	Y24	Z24	X25	Y25	Z25	X26	Y26	Z26	X27	Y27	Z27	X28	Y28	Z28	X29	Y29	Z29	X30	Y30	Z30	X31	Y31	Z31	X32	Y32	Z32	X33	Y33	Z33	X34	Y34	Z34	X35	Y35	Z35	X36	Y36	Z36

1591	6.36000	0.00000	0.00000	0.00000	-4001.88403	1016.09961	221.90514	-4008.52734	747.14490	302.84637	-4036.33276	674.65637	286.10129	-4066.94385	607.84741	274.78107	-4109.32520	713.26404	263.72800	-4080.10278	562.09369	266.09845	-4098.48779	555.06488	139.87776	0.00000	0.00000	0.00000	-4039.27710	118.61314	233.50903	0.00000	0.00000	0.00000	0.00000	0.00000	0.00000	0.00000	0.00000	0.00000	0.00000	0.00000	0.00000	-3780.71509	112.45826	132.39687	0.00000	0.00000	0.00000	0.00000	0.00000	0.00000	0.00000	0.00000	0.00000	0.00000	0.00000	0.00000	-3967.56543	1023.02722	-13.51109	-3875.95435	757.35358	-57.32675	0.00000	0.00000	0.00000	-3859.93604	602.35522	-22.56291	-3943.87451	678.70117	-12.76274	-3855.44849	530.16907	-4.94758	0.00000	0.00000	0.00000	-3789.32593	454.01770	-15.44716	-3789.87549	406.12085	-23.12762	-3849.50684	445.93948	-9.40839	-3841.22681	401.10968	-12.99597	0.00000	0.00000	0.00000	0.00000	0.00000	0.00000	-3681.51221	91.18474	120.81283	-3858.43994	46.80445	1.21438	0.00000	0.00000	0.00000	-3899.04810	45.45272	113.06265
1592	6.36400	0.00000	0.00000	0.00000	-4006.41626	1015.32214	221.77527	-4011.99854	746.01526	302.17221	-4039.68652	673.47137	285.46198	-4070.15210	606.59576	274.23795	-4112.73877	711.97644	263.03983	-4083.57324	560.88000	265.53687	-4102.14453	554.09076	139.25601	0.00000	0.00000	0.00000	0.00000	0.00000	0.00000	0.00000	0.00000	0.00000	-3774.36206	1050.72217	104.66398	0.00000	0.00000	0.00000	0.00000	0.00000	0.00000	-3782.57666	112.22212	131.11852	0.00000	0.00000	0.00000	-4053.39941	116.45278	232.64923	0.00000	0.00000	0.00000	0.00000	0.00000	0.00000	0.00000	0.00000	0.00000	-3878.90674	757.21252	-57.52346	0.00000	0.00000	0.00000	-3862.16162	602.32782	-22.73162	-3946.41772	678.28082	-12.91594	-3857.22388	530.09528	-5.07936	0.00000	0.00000	0.00000	-3790.69580	454.19727	-15.50465	-3791.07275	406.29639	-23.15352	-3850.81445	445.87677	-9.55971	-3842.37988	401.07428	-13.09163	0.00000	0.00000	0.00000	0.00000	0.00000	0.00000	-3675.79272	93.60793	119.25728	-3858.42749	46.74041	1.16628	0.00000	0.00000	0.00000	-3899.07544	45.45001	112.99568
1593	6.36800	0.00000	0.00000	0.00000	-4010.98193	1014.55487	221.64952	-4012.59985	743.63336	298.97995	-4042.88770	672.20294	284.85648	-4073.28687	605.28223	273.82675	-4116.07666	710.63147	262.42172	-4086.87305	559.52112	264.96973	-4105.66650	553.08728	138.66945	0.00000	0.00000	0.00000	-3778.62085	1050.19055	104.84232	0.00000	0.00000	0.00000	0.00000	0.00000	0.00000	0.00000	0.00000	0.00000	0.00000	0.00000	0.00000	0.00000	0.00000	0.00000	-3681.78638	91.81445	120.77325	0.00000	0.00000	0.00000	0.00000	0.00000	0.00000	0.00000	0.00000	0.00000	0.00000	0.00000	0.00000	-3881.88794	757.05945	-57.75437	0.00000	0.00000	0.00000	-3864.47412	602.30658	-22.90909	-3949.02979	677.83398	-13.05618	-3859.06958	530.03406	-5.24083	0.00000	0.00000	0.00000	-3792.14648	454.40698	-15.55861	-3792.29126	406.50137	-23.19898	-3852.18848	445.80096	-9.66413	-3843.63501	401.07175	-13.21712	0.00000	0.00000	0.00000	0.00000	0.00000	0.00000	0.00000	0.00000	0.00000	-3858.42822	46.69293	1.11130	0.00000	0.00000	0.00000	-3899.20361	45.52133	112.93786
1594	6.37200	0.00000	0.00000	0.00000	-4015.55396	1013.80066	221.51480	-4015.88257	742.36432	298.38617	-4046.06055	670.94073	284.34891	-4076.17065	603.82184	273.44345	-4119.25977	709.10059	261.88910	-4090.10889	558.13153	264.48639	-4109.03223	551.94391	138.11739	0.00000	0.00000	0.00000	0.00000	0.00000	0.00000	0.00000	0.00000	0.00000	-4111.08057	443.84802	282.90790	0.00000	0.00000	0.00000	0.00000	0.00000	0.00000	0.00000	0.00000	0.00000	-3682.05054	92.10184	120.80552	0.00000	0.00000	0.00000	0.00000	0.00000	0.00000	-3789.77930	1048.13513	164.21959	-3782.86450	1049.62317	104.97588	-3884.91602	756.85138	-57.99322	0.00000	0.00000	0.00000	-3866.79761	602.20532	-23.07277	-3951.71851	677.37549	-13.20126	-3861.00537	529.94666	-5.38466	0.00000	0.00000	0.00000	-3793.63599	454.58142	-15.59386	-3793.62598	406.76764	-23.32181	-3853.71362	445.78622	-9.79579	-3844.88330	401.00589	-13.33025	0.00000	0.00000	0.00000	0.00000	0.00000	0.00000	0.00000	0.00000	0.00000	-3858.99707	46.47977	1.64141	0.00000	0.00000	0.00000	-3899.26880	45.52944	112.86803
